<svg width="3856" height="2126" xmlns="http://www.w3.org/2000/svg" xmlns:xlink="http://www.w3.org/1999/xlink" overflow="hidden"><defs><clipPath id="clip0"><rect x="272" y="203" width="3856" height="2126"/></clipPath></defs><g clip-path="url(#clip0)" transform="translate(-272 -203)"><rect x="272" y="203" width="3856" height="2126" fill="#FFFFFF"/><rect x="1104" y="270" width="463" height="165" fill="#BED6FA"/><text fill="#262626" font-family="Segoe UI Semilight,Segoe UI Semilight_MSFontService,sans-serif" font-weight="300" font-size="83" transform="matrix(1 0 0 1 1225.16 383)">Image</text><rect x="1652" y="504" width="463" height="165" fill="#E0EBF6"/><text fill="#262626" font-family="Segoe UI Semilight,Segoe UI Semilight_MSFontService,sans-serif" font-weight="300" font-size="83" transform="matrix(1 0 0 1 1715.23 617)">Signature</text><rect x="1662" y="1520" width="581" height="165" fill="#E2F0D9"/><text fill="#262626" font-family="Segoe UI Semilight,Segoe UI Semilight_MSFontService,sans-serif" font-weight="300" font-size="83" transform="matrix(1 0 0 1 1841.34 1633)">SBOM</text><rect x="1652" y="757" width="591" height="165" fill="#EBE9EC"/><text fill="#262626" font-family="Segoe UI Semilight,Segoe UI Semilight_MSFontService,sans-serif" font-weight="300" font-size="83" transform="matrix(1 0 0 1 1700.64 870)">Vulnerabilities</text><rect x="1652" y="1088" width="591" height="165" fill="#C9CBE7"/><text fill="#262626" font-family="Segoe UI Semilight,Segoe UI Semilight_MSFontService,sans-serif" font-weight="300" font-size="83" transform="matrix(1 0 0 1 1755.35 1201)">QA Results</text><rect x="2360" y="1649" width="438" height="165" fill="#E0EBF6"/><text fill="#262626" font-family="Segoe UI Semilight,Segoe UI Semilight_MSFontService,sans-serif" font-weight="300" font-size="83" transform="matrix(1 0 0 1 2411 1762)">Signature</text><rect x="2360" y="885" width="438" height="165" fill="#E0EBF6"/><text fill="#262626" font-family="Segoe UI Semilight,Segoe UI Semilight_MSFontService,sans-serif" font-weight="300" font-size="83" transform="matrix(1 0 0 1 2411 998)">Signature</text><rect x="2360" y="1232" width="438" height="165" fill="#E0EBF6"/><text fill="#262626" font-family="Segoe UI Semilight,Segoe UI Semilight_MSFontService,sans-serif" font-weight="300" font-size="83" transform="matrix(1 0 0 1 2411 1345)">Signature</text><rect x="2360" y="1943" width="438" height="165" fill="#E2F0D9"/><text fill="#262626" font-family="Segoe UI Semilight,Segoe UI Semilight_MSFontService,sans-serif" font-weight="300" font-size="83" transform="matrix(1 0 0 1 2452.25 2056)">Artifact</text><path d="M1653.1 588.441 1334.78 588.441 1334.78 458.417 1338.22 458.417 1338.22 586.723 1336.5 585.004 1653.1 585.004ZM1322.75 463 1336.5 435.5 1350.25 463Z" fill="#7F7F7F"/><path d="M1653.1 841.288 1334.78 841.288 1334.78 458.417 1338.22 458.417 1338.22 839.569 1336.5 837.85 1653.1 837.85ZM1322.75 463 1336.5 435.5 1350.25 463Z" fill="#7F7F7F"/><path d="M1653.1 1172.73 1334.78 1172.73 1334.78 458.417 1338.22 458.417 1338.22 1171.01 1336.5 1169.29 1653.1 1169.29ZM1322.75 463 1336.5 435.5 1350.25 463Z" fill="#7F7F7F"/><path d="M2361.12 1316.82 1946.78 1316.82 1946.78 1276.42 1950.22 1276.42 1950.22 1315.11 1948.5 1313.39 2361.12 1313.39ZM1934.75 1281 1948.5 1253.5 1962.25 1281Z" fill="#7F7F7F"/><path d="M2361.12 969.691 1946.78 969.691 1946.78 945.417 1950.22 945.417 1950.22 967.972 1948.5 966.253 2361.12 966.253ZM1934.75 950 1948.5 922.5 1962.25 950Z" fill="#7F7F7F"/><rect x="2909" y="2107" width="438" height="165" fill="#E0EBF6"/><text fill="#262626" font-family="Segoe UI Semilight,Segoe UI Semilight_MSFontService,sans-serif" font-weight="300" font-size="83" transform="matrix(1 0 0 1 2959.76 2220)">Signature</text><path d="M2360.49 1733.63 1950.78 1733.63 1950.78 1708.42 1954.22 1708.42 1954.22 1731.91 1952.5 1730.2 2360.49 1730.2ZM1938.75 1713 1952.5 1685.5 1966.25 1713Z" fill="#7F7F7F"/><path d="M2360.49 2027.55 1950.78 2027.55 1950.78 1708.42 1954.22 1708.42 1954.22 2025.83 1952.5 2024.11 2360.49 2024.11ZM1938.75 1713 1952.5 1685.5 1966.25 1713Z" fill="#7F7F7F"/><path d="M2909.29 2192.07 2577.78 2192.07 2577.78 2131.42 2581.22 2131.42 2581.22 2190.35 2579.5 2188.63 2909.29 2188.63ZM2565.75 2136 2579.5 2108.5 2593.25 2136Z" fill="#7F7F7F"/><path d="M1662.36 1604.25 1334.78 1604.25 1334.78 458.412 1338.22 458.412 1338.22 1602.53 1336.5 1600.81 1662.36 1600.81ZM1322.75 463 1336.5 435.5 1350.25 463Z" fill="#7F7F7F"/></g></svg>